<?xml version="1.0" standalone="no"?>
<!DOCTYPE svg PUBLIC "-//W3C//DTD SVG 20010904//EN"
 "http://www.w3.org/TR/2001/REC-SVG-20010904/DTD/svg10.dtd">
<svg version="1.0" xmlns="http://www.w3.org/2000/svg"
 width="520.000000pt" height="513.000000pt" viewBox="0 0 520.000000 513.000000"
 preserveAspectRatio="xMidYMid meet">

<g transform="translate(0.000000,513.000000) scale(0.100000,-0.100000)"
fill="#000000" stroke="none">
<path d="M2400 4923 c-114 -6 -247 -23 -300 -38 -30 -8 -97 -24 -148 -35 -86
-20 -141 -38 -267 -88 -27 -11 -81 -33 -120 -48 -38 -15 -72 -30 -75 -33 -3
-3 -21 -14 -40 -25 -19 -10 -64 -38 -100 -61 -36 -23 -94 -61 -130 -85 -36
-23 -86 -60 -111 -83 -25 -23 -83 -76 -129 -117 -80 -73 -210 -227 -210 -249
0 -6 -3 -11 -8 -11 -16 0 -113 -141 -164 -240 -96 -188 -156 -342 -184 -476
-18 -89 -18 -123 2 -145 15 -16 14 -26 -9 -121 -14 -57 -28 -132 -31 -168 -3
-36 -13 -114 -22 -175 -8 -60 -16 -149 -16 -197 -1 -116 20 -337 38 -418 28
-121 37 -150 45 -156 5 -3 9 -15 9 -27 0 -12 7 -35 15 -51 8 -15 15 -34 15
-40 0 -6 9 -29 20 -51 11 -22 20 -45 20 -52 0 -12 56 -140 87 -198 9 -16 21
-39 26 -50 6 -11 14 -27 19 -35 5 -8 20 -37 34 -65 14 -27 41 -75 59 -105 19
-30 38 -62 42 -70 23 -50 156 -210 174 -210 4 0 30 -21 57 -47 140 -136 185
-174 229 -196 26 -13 67 -35 89 -49 23 -15 57 -34 75 -43 19 -8 59 -30 89 -48
215 -128 733 -231 996 -198 49 6 123 13 164 14 41 2 80 5 85 8 6 4 42 7 80 8
61 1 241 43 360 83 17 5 58 16 92 23 33 8 78 24 100 38 21 13 50 27 64 30 14
4 42 18 63 32 20 14 41 25 47 25 18 0 186 88 232 121 25 19 81 60 124 91 43
32 91 69 107 83 16 14 33 25 38 25 15 0 228 221 287 298 31 41 68 89 83 109
34 43 158 250 158 262 0 4 12 30 27 57 31 55 35 63 90 219 22 61 45 137 52
170 7 33 17 71 22 85 5 14 13 70 19 125 5 55 14 145 20 200 10 101 8 187 -11
411 -9 114 -19 161 -70 324 -11 36 -24 85 -30 110 -8 39 -83 203 -167 365 -28
55 -82 136 -116 175 -12 14 -35 45 -50 68 -40 63 -66 92 -212 237 -152 151
-219 208 -326 278 -43 28 -78 54 -78 59 0 4 -6 8 -14 8 -7 0 -19 6 -25 14 -7
8 -69 43 -139 77 -70 35 -138 70 -152 79 -30 20 -157 71 -168 68 -7 -3 -72 15
-132 37 -117 42 -207 60 -350 70 -36 2 -92 9 -125 15 -57 9 -103 10 -225 3z
m424 -71 c70 -11 131 -24 135 -27 7 -9 -106 3 -169 17 -39 8 -299 3 -395 -8
-41 -4 -239 -41 -295 -54 -69 -17 -188 -58 -338 -119 -64 -26 -176 -86 -218
-118 -17 -13 -37 -23 -44 -23 -14 0 -54 -28 -135 -95 -16 -14 -35 -25 -42 -25
-7 0 -16 -6 -20 -14 -4 -7 -28 -27 -53 -44 -51 -34 -80 -62 -231 -218 -94 -98
-219 -252 -219 -271 0 -5 -18 -28 -40 -53 -22 -25 -46 -56 -54 -70 -7 -14 -43
-77 -78 -140 -64 -113 -73 -128 -118 -220 -30 -60 -43 -73 -35 -35 4 17 11 53
17 80 5 28 14 58 19 67 5 10 9 22 9 27 0 5 14 39 30 74 17 36 30 69 30 74 0
18 79 157 151 264 41 63 82 125 91 139 24 39 287 301 348 348 137 105 200 148
265 180 39 19 72 38 75 42 3 4 17 10 31 13 14 4 41 17 60 30 19 13 59 31 89
41 30 10 74 27 98 37 23 11 50 19 58 19 9 0 30 6 47 14 42 18 98 31 242 56 66
11 136 24 155 29 62 16 393 5 534 -17z m56 -86 c171 -19 442 -85 527 -129 18
-9 38 -17 46 -17 7 0 18 -5 25 -12 6 -6 34 -21 62 -33 27 -11 60 -30 72 -40
13 -11 46 -35 74 -53 51 -32 329 -303 362 -353 9 -14 35 -52 57 -84 22 -31 47
-67 55 -79 8 -12 29 -40 45 -62 30 -39 42 -62 130 -249 26 -55 52 -101 56
-103 5 -2 9 -13 9 -25 0 -12 7 -35 15 -51 8 -15 15 -33 15 -39 0 -7 20 -77 44
-157 25 -81 49 -187 55 -240 6 -52 17 -133 24 -180 6 -47 11 -92 10 -100 -1
-8 -5 -85 -8 -170 -4 -92 -14 -191 -25 -245 -34 -160 -70 -299 -84 -330 -68
-143 -106 -226 -106 -229 0 -7 -91 -168 -103 -182 -7 -8 -16 -20 -22 -27 -23
-28 -85 -128 -85 -137 0 -5 -4 -10 -9 -10 -5 0 -12 -8 -16 -17 -3 -10 -30 -45
-61 -78 -30 -33 -86 -98 -124 -145 -38 -47 -92 -105 -121 -130 -29 -25 -63
-54 -75 -65 -121 -109 -163 -144 -198 -165 -234 -140 -289 -171 -322 -183 -22
-8 -79 -29 -129 -46 -49 -17 -97 -35 -105 -40 -23 -12 -104 -29 -225 -46 -60
-9 -126 -20 -145 -24 -19 -5 -111 -10 -205 -10 -143 -1 -188 3 -290 23 -66 14
-149 30 -185 36 -94 17 -301 90 -380 134 -21 12 -74 41 -119 65 -44 25 -81 48
-81 52 0 3 -19 19 -42 35 -24 16 -45 31 -48 34 -3 3 -27 24 -55 45 -85 68
-198 185 -289 300 -47 61 -90 115 -95 121 -11 13 -89 142 -117 192 -11 20 -34
62 -51 92 -30 54 -101 223 -122 290 -57 184 -83 305 -92 430 -9 116 -8 185 6
435 3 38 29 171 60 295 19 76 92 285 119 340 64 131 143 271 176 315 20 28 46
65 56 84 10 18 24 42 30 52 13 22 218 242 299 320 89 86 177 150 320 234 74
43 98 63 115 97 16 31 43 49 150 97 174 77 362 135 500 152 36 5 85 13 110 18
43 10 413 7 510 -3z m1243 -603 c145 -146 300 -367 389 -553 113 -237 117
-246 149 -370 11 -41 27 -100 35 -130 55 -198 65 -481 28 -760 -18 -131 -27
-170 -91 -365 -50 -155 -155 -375 -230 -481 -26 -38 -66 -95 -87 -127 -21 -32
-57 -77 -80 -100 -23 -24 -68 -73 -101 -109 -33 -36 -87 -88 -120 -115 -33
-28 -73 -63 -89 -77 -45 -42 -223 -159 -298 -195 -97 -47 -118 -36 -35 18 37
24 71 50 75 58 5 8 54 55 109 106 55 51 136 135 179 187 105 127 115 139 142
166 12 13 22 26 22 29 0 4 20 32 43 63 71 92 207 303 207 320 0 8 6 23 14 31
20 24 106 195 106 213 0 9 7 29 15 44 8 16 15 37 15 46 0 10 6 32 14 50 59
142 89 365 83 622 -2 99 -7 199 -10 221 -22 139 -50 264 -76 341 -17 49 -31
95 -31 103 0 8 -8 33 -19 55 -10 23 -44 100 -76 171 -31 72 -68 144 -81 162
-13 17 -24 37 -24 43 0 18 -87 150 -197 300 -142 193 -141 195 20 33z"/>
<path d="M1764 3778 c-83 -73 -107 -99 -155 -173 -87 -133 -119 -186 -119
-195 0 -5 -7 -18 -16 -29 -37 -43 -204 -498 -234 -636 -4 -22 -18 -78 -30
-125 l-22 -85 -124 -125 c-182 -185 -217 -234 -253 -356 -22 -75 -21 -90 11
-136 15 -22 27 -28 56 -28 84 1 166 65 229 180 36 67 45 90 107 290 28 92 42
122 69 148 18 17 36 32 41 32 4 0 38 19 74 43 75 48 262 142 305 152 25 7 27
5 27 -21 0 -15 -6 -77 -14 -138 -60 -461 -83 -928 -52 -1031 9 -32 17 -41 39
-43 l27 -3 2 188 c1 229 2 241 21 428 16 153 34 360 42 495 11 168 14 175 90
181 l40 4 -3 -37 c-2 -21 2 -63 8 -93 9 -45 16 -58 37 -66 44 -16 82 18 143
128 57 104 89 153 101 153 4 0 14 -18 23 -40 14 -36 20 -40 50 -40 24 0 47 11
84 40 27 22 52 40 54 40 2 0 2 -59 0 -130 -4 -103 -1 -146 14 -203 23 -92 35
-107 91 -107 55 0 95 26 158 103 26 31 52 57 57 57 5 0 24 -11 42 -25 29 -22
40 -24 96 -20 70 6 85 12 166 69 45 32 57 37 65 25 5 -8 9 -74 9 -147 0 -122
2 -137 25 -182 28 -56 57 -70 101 -48 38 18 97 108 134 203 52 134 49 128 64
116 7 -6 16 -24 19 -39 3 -15 21 -44 39 -65 26 -29 40 -37 66 -37 53 0 127 45
199 120 36 39 69 70 74 70 4 0 23 -16 42 -35 41 -41 72 -44 157 -19 92 27 273
173 241 194 -20 12 -60 -6 -91 -39 -56 -62 -118 -99 -175 -106 -50 -7 -59 -5
-81 16 -16 15 -24 33 -24 56 0 30 5 36 43 52 80 34 144 142 109 184 -51 61
-174 -17 -207 -130 -20 -70 -60 -134 -117 -189 -44 -43 -149 -114 -167 -114
-6 0 -19 12 -28 27 -15 23 -18 47 -16 153 1 69 3 147 5 174 2 36 -1 51 -13 59
-35 22 -70 -41 -84 -148 -11 -87 -30 -139 -113 -313 -26 -52 -58 -104 -75
-118 -29 -25 -32 -25 -44 -8 -7 10 -13 41 -14 68 -1 28 -2 80 -4 116 -2 36 1
103 6 149 6 46 12 103 14 125 13 111 37 234 67 341 12 44 22 100 22 125 1 40
-2 45 -22 48 -13 2 -30 -2 -37 -8 -22 -18 -60 -151 -74 -255 -28 -207 -48
-296 -72 -322 -109 -115 -289 -149 -289 -54 0 33 34 81 57 81 28 0 84 51 103
92 28 63 10 96 -55 96 -69 0 -131 -67 -166 -178 -25 -79 -79 -162 -144 -218
-46 -41 -63 -40 -81 4 -12 28 -14 74 -12 223 2 148 0 191 -11 204 -25 31 -54
19 -125 -50 -53 -53 -69 -64 -77 -52 -5 8 -9 23 -9 35 0 29 -53 77 -77 70 -23
-7 -55 -40 -74 -77 -8 -15 -32 -56 -54 -93 -33 -55 -41 -63 -47 -47 -3 10 0
46 7 79 27 116 -15 159 -66 67 -26 -48 -29 -50 -75 -53 -26 -2 -51 1 -56 6
-10 10 -5 51 27 257 8 50 22 142 30 205 9 63 24 149 33 190 23 111 22 226 -4
270 -18 31 -25 35 -65 38 -42 3 -50 -1 -95 -40z m112 -117 c-4 -54 -13 -141
-21 -192 -20 -136 -45 -271 -50 -280 -4 -6 -30 -174 -50 -326 -7 -48 -14 -55
-75 -72 -25 -7 -58 -19 -75 -25 -88 -37 -135 -60 -135 -66 0 -3 -17 -12 -37
-19 -21 -8 -59 -29 -84 -47 -52 -38 -84 -45 -75 -16 3 9 12 49 21 87 17 76 34
133 70 235 12 36 30 92 40 125 9 33 30 87 45 120 15 33 38 85 51 115 38 87
167 296 218 352 55 62 117 108 143 108 18 0 19 -6 14 -99z m2139 -751 c3 -5
-2 -21 -12 -34 -46 -62 -95 -54 -52 9 23 34 52 45 64 25z m-1117 -24 c4 -20
-34 -66 -55 -66 -21 0 -15 40 10 66 25 26 40 26 45 0z m-1763 -558 c-6 -29
-15 -62 -19 -73 -4 -11 -15 -38 -23 -60 -58 -160 -208 -303 -229 -220 -8 32
38 143 84 205 55 74 172 200 186 200 10 0 10 -11 1 -52z"/>
<path d="M3538 3213 c-28 -32 -31 -77 -8 -98 20 -18 24 -18 48 -4 36 19 42 69
13 98 -26 26 -33 26 -53 4z"/>
<path d="M2480 1998 c-25 -8 -80 -80 -80 -104 0 -6 7 -17 15 -24 11 -9 15 -32
15 -82 l0 -69 33 3 32 3 -4 72 c-3 70 -2 73 23 83 32 12 34 32 5 45 -28 13
-26 29 3 35 13 3 23 12 23 19 0 19 -35 30 -65 19z"/>
<path d="M2070 1983 c-81 -29 -94 -48 -104 -143 -5 -45 -3 -61 14 -87 11 -18
28 -33 37 -34 10 0 39 -2 65 -4 53 -3 82 12 73 37 -5 12 -19 16 -61 16 -30 0
-57 2 -61 5 -3 4 -8 28 -10 54 -8 76 14 94 120 102 14 2 7 24 -15 42 -22 19
-32 21 -58 12z"/>
<path d="M3097 1984 c-3 -5 -4 -65 -4 -132 l2 -124 78 4 c69 3 80 6 97 28 12
15 17 31 12 40 -4 8 -6 45 -5 82 2 62 0 69 -22 84 -28 18 -149 32 -158 18z
m112 -33 c12 -8 12 -12 2 -25 -17 -21 -50 -20 -58 0 -10 26 28 43 56 25z m16
-146 c0 -15 -8 -21 -29 -23 -33 -4 -51 10 -42 33 9 25 71 16 71 -10z"/>
<path d="M3565 1917 c-3 -12 -5 -58 -3 -102 3 -78 4 -80 28 -80 24 0 25 4 30
64 5 64 10 72 53 85 11 4 17 13 15 23 -3 14 -12 17 -45 15 -23 -2 -44 2 -48 7
-10 18 -24 12 -30 -12z"/>
<path d="M3353 1915 c-8 -22 4 -30 45 -30 50 0 52 -22 3 -30 -51 -8 -75 -41
-65 -90 l6 -35 72 0 c39 0 77 4 83 8 8 5 12 24 9 53 -2 24 -4 58 -5 76 -1 47
-23 63 -87 63 -40 0 -56 -4 -61 -15z m86 -104 c12 -8 12 -12 2 -25 -16 -19
-33 -20 -48 -5 -26 26 12 51 46 30z"/>
<path d="M2240 1911 c-39 -11 -31 -35 13 -39 46 -4 45 -26 -1 -30 -17 -2 -35
-9 -41 -15 -10 -13 -19 -93 -10 -101 7 -7 30 -8 97 -7 l62 1 0 59 c0 87 -8
115 -38 129 -28 13 -44 14 -82 3z m60 -135 c0 -19 -14 -28 -34 -20 -25 10 -19
34 9 34 15 0 25 -6 25 -14z"/>
<path d="M2615 1913 c-31 -8 -42 -21 -50 -56 -10 -52 -6 -99 12 -119 13 -14
31 -18 86 -18 l69 0 -7 27 c-9 37 -10 38 -45 23 -27 -11 -34 -11 -47 3 -23 23
-7 37 42 37 24 0 47 5 50 11 13 20 -6 60 -38 79 -33 20 -38 21 -72 13z m45
-48 c0 -16 -35 -21 -44 -6 -8 12 4 21 26 21 10 0 18 -7 18 -15z"/>
<path d="M2844 1858 c-3 -5 -2 -17 1 -28 6 -17 15 -20 76 -20 54 0 71 4 76 16
3 8 0 21 -6 27 -13 13 -140 17 -147 5z"/>
</g>
</svg>
