<?xml version="1.0" standalone="no"?>
<!DOCTYPE svg PUBLIC "-//W3C//DTD SVG 20010904//EN"
 "http://www.w3.org/TR/2001/REC-SVG-20010904/DTD/svg10.dtd">
<svg version="1.0" xmlns="http://www.w3.org/2000/svg"
 width="1275.000000pt" height="1650.000000pt" viewBox="0 0 1275.000000 1650.000000"
 preserveAspectRatio="xMidYMid meet">

<g transform="translate(0.000000,1650.000000) scale(0.100000,-0.100000)"
fill="#000000" stroke="none">
<path d="M5980 13243 c-1070 -61 -2142 -487 -2936 -1166 -361 -309 -681 -680
-905 -1050 -315 -520 -580 -1236 -567 -1532 l3 -70 38 -5 c21 -3 38 -9 38 -15
2 -29 -18 -110 -71 -300 -101 -358 -139 -647 -147 -1113 -9 -506 32 -880 142
-1318 329 -1299 1151 -2341 2304 -2918 526 -264 1049 -409 1736 -482 202 -22
797 -25 985 -6 809 83 1454 273 2105 620 647 346 1218 833 1649 1407 862 1149
1176 2678 836 4063 -353 1430 -1373 2657 -2810 3377 -213 107 -261 129 -425
195 -427 170 -899 276 -1385 310 -133 9 -456 11 -590 3z m641 -133 c201 -16
424 -47 614 -85 209 -42 228 -48 233 -65 7 -20 -107 -8 -343 36 l-200 38 -400
0 c-429 1 -536 -7 -845 -60 -1554 -267 -2856 -1269 -3720 -2864 -34 -63 -109
-221 -167 -350 -111 -251 -115 -253 -66 -30 77 354 231 743 433 1096 575 1008
1552 1763 2719 2099 310 89 635 151 921 175 69 5 141 12 160 14 86 8 539 5
661 -4z m279 -221 c838 -60 1600 -328 2120 -746 115 -93 370 -342 499 -489
1083 -1233 1528 -2955 1156 -4469 -119 -485 -289 -874 -579 -1325 -600 -936
-1340 -1634 -2151 -2030 -939 -458 -1939 -546 -3050 -269 -649 162 -1155 437
-1682 911 -746 671 -1353 1740 -1527 2688 -50 274 -61 402 -60 745 0 340 10
472 59 761 180 1065 734 2092 1518 2812 330 303 413 366 772 582 149 90 281
172 295 182 19 15 26 32 30 71 l5 52 85 42 c98 49 388 170 606 254 510 194
1209 278 1904 228z m2876 -1291 c264 -269 436 -481 629 -773 433 -655 684
-1331 781 -2105 21 -172 30 -654 15 -850 -101 -1328 -751 -2556 -1791 -3382
-204 -162 -498 -355 -701 -461 -126 -66 -307 -143 -315 -134 -3 3 68 58 158
123 210 151 372 289 582 494 634 619 1192 1395 1464 2035 546 1283 444 2757
-286 4130 -182 341 -467 768 -661 988 -46 52 -65 97 -43 97 5 0 80 -73 168
-162z"/>
<path d="M4783 10780 c-173 -78 -419 -339 -614 -650 -303 -484 -527 -1071
-750 -1962 l-61 -247 -122 -102 c-176 -148 -458 -435 -555 -564 -89 -120 -172
-276 -196 -370 -68 -268 78 -425 316 -341 134 47 202 108 319 286 92 141 142
254 205 460 105 345 155 495 175 528 33 54 377 266 625 387 154 74 435 189
443 181 3 -4 -31 -342 -76 -754 -46 -411 -82 -783 -82 -826 0 -43 -7 -201 -16
-350 -17 -298 -15 -675 5 -739 19 -59 43 -77 101 -77 l50 0 0 343 0 342 100
1059 c54 582 101 1060 103 1062 4 4 232 54 246 54 5 0 8 -70 7 -157 -1 -131 2
-166 17 -205 26 -67 66 -98 126 -98 88 0 137 59 297 356 93 174 169 294 185
294 5 0 13 -19 20 -42 15 -59 36 -97 72 -135 64 -68 158 -36 320 109 l80 73
-6 -75 c-24 -283 -30 -465 -19 -579 26 -261 96 -365 245 -364 111 1 220 81
356 263 95 126 100 131 123 119 11 -6 44 -33 74 -60 64 -58 81 -65 161 -74
126 -14 284 43 433 157 87 67 121 88 139 88 6 0 11 -113 13 -322 l3 -323 41
-98 c61 -144 105 -182 185 -158 108 33 215 190 343 506 64 158 122 268 129
245 3 -8 15 -46 27 -85 72 -234 239 -313 446 -211 69 35 96 58 244 208 181
185 185 187 220 118 38 -75 134 -121 249 -121 146 0 312 76 491 225 77 63 212
214 207 231 -2 6 -15 16 -30 23 -41 20 -90 -7 -197 -112 -52 -51 -129 -114
-171 -139 -213 -132 -366 -140 -434 -23 -31 53 -42 114 -26 144 6 12 56 42
114 70 123 59 200 125 246 211 58 109 40 205 -46 243 -84 37 -194 -3 -297
-106 -75 -75 -107 -134 -142 -257 -38 -133 -56 -166 -148 -276 -158 -188 -334
-323 -432 -331 -64 -5 -86 13 -109 91 -43 147 -46 380 -9 540 49 206 36 287
-46 287 -84 0 -124 -86 -160 -354 -26 -186 -45 -236 -220 -591 -125 -252 -177
-338 -230 -377 -69 -51 -105 41 -117 297 -10 216 25 572 98 1000 29 170 50
261 134 570 42 153 54 270 31 299 -18 23 -57 24 -90 2 -88 -57 -167 -273 -215
-586 -11 -74 -34 -232 -51 -350 -44 -314 -41 -303 -119 -380 -152 -150 -390
-253 -508 -221 -61 17 -100 54 -117 112 -27 89 -5 118 145 195 155 79 244 183
256 296 4 45 1 59 -19 88 -31 46 -61 60 -129 60 -79 0 -158 -41 -241 -127 -87
-92 -113 -139 -148 -277 -41 -158 -81 -233 -213 -393 -122 -149 -226 -206
-276 -152 -45 49 -46 86 -25 789 5 180 4 198 -14 229 -48 87 -113 59 -303
-126 -75 -73 -143 -133 -152 -133 -17 0 -22 20 -31 123 -9 106 -78 172 -156
148 -62 -18 -108 -75 -254 -311 -76 -124 -145 -232 -153 -240 -26 -28 -15 91
22 233 50 193 46 262 -16 285 -58 22 -102 -22 -154 -152 l-33 -81 -136 -3
-137 -3 6 23 c3 13 72 428 154 923 138 831 149 905 140 964 -19 136 -56 217
-112 252 -41 25 -119 25 -174 -1z m127 -182 c-1 -250 -44 -581 -131 -1008
-113 -552 -149 -756 -174 -991 l-6 -56 -79 -21 c-199 -54 -407 -149 -770 -356
-113 -64 -206 -112 -208 -107 -5 16 111 459 182 693 204 674 443 1175 753
1579 85 112 209 234 278 275 40 23 115 50 148 53 4 1 7 -27 7 -61z m2258
-1910 c40 -40 -29 -144 -122 -183 -19 -8 -42 -15 -51 -15 -49 0 27 155 93 190
43 22 63 25 80 8z m2446 -1 c17 -12 17 -18 6 -51 -17 -53 -60 -98 -118 -125
-61 -29 -87 -23 -78 17 11 46 78 136 116 154 42 21 51 22 74 5z m-6364 -1190
c-86 -336 -259 -660 -412 -773 -62 -45 -154 -81 -182 -71 -69 27 -31 215 81
399 75 125 204 281 352 427 132 129 167 157 184 142 4 -4 -6 -60 -23 -124z"/>
<path d="M8610 9402 c-62 -31 -108 -129 -95 -200 13 -70 95 -110 161 -79 79
38 97 189 31 261 -31 34 -56 39 -97 18z"/>
<path d="M6175 6716 c-22 -10 -43 -37 -82 -108 -59 -106 -64 -133 -30 -144 12
-4 25 -12 29 -18 4 -6 5 -84 1 -173 l-6 -163 71 0 72 0 2 178 3 177 53 3 52 3
0 40 0 39 -55 0 -55 0 0 39 0 39 48 -1 c89 -1 129 31 97 79 -14 22 -22 24 -93
24 -42 -1 -90 -7 -107 -14z"/>
<path d="M6601 6678 l-43 -53 33 -3 c28 -3 40 4 88 52 l56 56 -46 0 c-43 0
-48 -3 -88 -52z"/>
<path d="M5265 6686 c-65 -21 -101 -43 -138 -87 -43 -50 -60 -114 -60 -229 0
-188 92 -270 304 -270 117 0 119 1 119 66 l0 54 -124 0 -124 0 -17 43 c-27 64
-31 177 -10 233 25 66 45 75 160 73 85 -2 100 0 111 16 12 16 10 54 -4 79 -19
33 -142 46 -217 22z"/>
<path d="M7550 6402 l0 -290 23 -6 c37 -10 193 -7 249 5 91 20 156 63 172 116
10 31 -11 100 -45 150 l-28 42 31 31 c28 29 30 35 26 91 -3 38 -11 69 -25 87
-37 50 -64 57 -240 60 l-163 3 0 -289z m260 189 c15 -11 25 -28 25 -42 0 -25
-25 -34 -110 -41 -38 -3 -40 -1 -43 28 -2 19 5 40 19 58 18 23 26 26 53 21 17
-4 42 -15 56 -24z m-8 -261 c37 -11 78 -51 78 -77 0 -18 -40 -32 -105 -37 -29
-2 -58 -6 -63 -10 -5 -3 -15 1 -22 9 -18 22 -5 86 21 108 24 20 40 21 91 7z"/>
<path d="M5688 6553 c-35 -6 -68 -47 -68 -85 0 -29 1 -30 38 -24 152 23 182
19 182 -29 0 -21 -6 -22 -84 -28 -138 -10 -186 -48 -186 -148 0 -51 4 -63 29
-91 l29 -33 164 0 163 0 3 166 c4 196 -4 230 -65 255 -38 16 -156 26 -205 17z
m152 -306 c0 -43 -25 -77 -56 -77 -63 0 -124 54 -95 83 6 6 35 14 64 18 91 11
87 12 87 -24z"/>
<path d="M6501 6549 c-48 -19 -84 -54 -107 -103 -43 -92 -27 -235 32 -288 49
-43 153 -64 264 -53 l70 7 0 55 0 56 -42 -7 c-102 -15 -145 -17 -171 -7 -29
11 -47 44 -39 73 4 15 20 18 141 20 l136 3 -1 45 c0 25 -3 57 -7 72 -10 40
-65 98 -112 119 -43 20 -125 24 -164 8z m106 -97 c7 -4 16 -22 19 -40 l7 -32
-62 0 c-70 0 -84 14 -57 55 17 26 66 34 93 17z"/>
<path d="M8174 6551 c-17 -4 -36 -11 -42 -15 -16 -10 -15 -68 1 -89 11 -16 16
-16 62 -2 74 22 121 20 139 -7 29 -41 21 -48 -51 -48 -97 -1 -143 -14 -175
-50 -25 -26 -28 -38 -28 -96 0 -123 39 -153 172 -133 43 6 109 10 147 7 l69
-4 1 148 c3 218 -16 267 -111 287 -55 12 -137 13 -184 2z m176 -287 c0 -44
-32 -78 -65 -70 -75 19 -111 54 -83 82 13 14 125 34 141 27 4 -2 7 -20 7 -39z"/>
<path d="M8577 6553 c-4 -3 -7 -105 -7 -225 l0 -218 76 0 76 0 -7 98 c-7 98 1
160 28 196 7 10 37 22 72 29 53 11 60 15 68 42 11 40 -6 85 -33 85 -11 0 -48
-14 -82 -31 l-61 -31 -28 31 c-21 23 -37 31 -62 31 -18 0 -37 -3 -40 -7z"/>
<path d="M7000 6355 l0 -45 170 0 170 0 0 45 0 45 -170 0 -170 0 0 -45z"/>
</g>
</svg>
