<svg xmlns="http://www.w3.org/2000/svg" viewBox="0 0 119.93 119.93"><defs><style>.cls-1{fill:#fff;}</style></defs><title>Andi</title><g id="Capa_2" data-name="Capa 2"><g id="Capa_1-2" data-name="Capa 1"><path class="cls-1" d="M60,119.93A60,60,0,0,1,36.62,4.71a60,60,0,0,1,65.75,97.65A59.88,59.88,0,0,1,60,119.93ZM60,2.74a57.25,57.25,0,0,0-22.27,110A57.22,57.22,0,0,0,117.19,60,57.16,57.16,0,0,0,60,2.74Z"/><polygon class="cls-1" points="18.57 55.48 19.68 58.9 23.29 58.9 20.37 61.02 21.49 64.45 18.57 62.33 15.66 64.45 16.77 61.02 13.86 58.9 17.46 58.9 18.57 55.48"/><polygon class="cls-1" points="98.24 55.48 99.35 58.9 102.96 58.9 100.04 61.02 101.15 64.45 98.24 62.33 95.32 64.45 96.44 61.02 93.52 58.9 97.13 58.9 98.24 55.48"/><path class="cls-1" d="M52.51,71.27a4.63,4.63,0,0,1-1-.1L50.12,87a1.14,1.14,0,0,0,1.13,1.23h3.17a1.13,1.13,0,0,0,1.13-1L57,71.14Z"/><path class="cls-1" d="M52.51,64l5.33.13a1.07,1.07,0,0,1-.2-.74l1.88-21.48s.06-.68.43-.68.43.68.43.68l1.88,21.48a1.18,1.18,0,0,1-.29.85l5.82.16L65.16,34.35a2.91,2.91,0,0,0-2.9-2.66H57.63a2.91,2.91,0,0,0-2.9,2.66L52.13,64Z"/><path class="cls-1" d="M62.92,71,64.34,87.2a1.13,1.13,0,0,0,1.13,1h3.17A1.13,1.13,0,0,0,69.77,87L68.35,70.8Z"/></g></g></svg>