<svg xmlns="http://www.w3.org/2000/svg" viewBox="0 0 120.18 120.18"><defs><style>.cls-1{fill:#fff;}</style></defs><title>Andi</title><g id="Capa_2" data-name="Capa 2"><g id="Capa_1-2" data-name="Capa 1"><path class="cls-1" d="M36.31,90.14h2.16q1.26,0,1.26,1.41v2c0,.72-.21,1.18-.65,1.37l.77,3.44H38.8l-.72-3.34h-.67V98.4h-1.1Zm1.1,4h.73c.33,0,.49-.2.49-.6V91.74c0-.4-.16-.6-.49-.6h-.73Z"/><path class="cls-1" d="M40.65,98.4V90.14h2.74v1H41.76v2.51h1.45v1H41.76V97.4h1.63v1Z"/><path class="cls-1" d="M46.3,92.36v-.73a.43.43,0,0,0-.48-.49h-.17c-.32,0-.47.16-.47.49V93a.39.39,0,0,0,.09.31,1.48,1.48,0,0,0,.3.21l1,.56c.23.14.4.24.49.31a.82.82,0,0,1,.23.26,1.57,1.57,0,0,1,.08.6V97c0,.93-.45,1.39-1.34,1.39h-.68c-.88,0-1.32-.51-1.32-1.52v-.41h1.11v.44a.43.43,0,0,0,.49.49h.2c.29,0,.43-.16.43-.49v-1.4a.41.41,0,0,0-.09-.31l-.3-.21-1-.58a4.31,4.31,0,0,1-.5-.31.76.76,0,0,1-.23-.33,1.58,1.58,0,0,1-.07-.53V91.55q0-1.41,1.32-1.41h.7q1.32,0,1.32,1.41v.81Z"/><path class="cls-1" d="M50.09,91.14V98.4H49V91.14h-1v-1h3.22v1Z"/><path class="cls-1" d="M52.83,98.4H51.72V91.55c0-.94.44-1.41,1.33-1.41h.82c.89,0,1.33.47,1.33,1.41V98.4H54.09v-3H52.83Zm1.26-4V91.62a.42.42,0,0,0-.48-.48h-.3a.42.42,0,0,0-.48.48v2.75Z"/><path class="cls-1" d="M59.76,90.14v6.69c0,1-.44,1.57-1.33,1.57H57.5c-.88,0-1.33-.53-1.33-1.58V90.14h1.11v6.72q0,.54.48.54h.45q.45,0,.45-.54V90.14Z"/><path class="cls-1" d="M60.8,90.14H63c.85,0,1.27.47,1.27,1.41v2c0,.72-.22,1.18-.66,1.37l.77,3.44h-1l-.73-3.34H61.9V98.4H60.8Zm1.1,4h.73c.33,0,.49-.2.49-.6V91.74c0-.4-.16-.6-.49-.6H61.9Z"/><path class="cls-1" d="M66.2,98.4H65.09V91.55q0-1.41,1.32-1.41h.83c.88,0,1.33.47,1.33,1.41V98.4H67.46v-3H66.2Zm1.26-4V91.62a.42.42,0,0,0-.48-.48h-.3a.42.42,0,0,0-.48.48v2.75Z"/><path class="cls-1" d="M71.83,94.13v-4h1.11V98.4H71.83V96.75L70.65,93V98.4H69.54V90.14h1.11Z"/><path class="cls-1" d="M75.73,91.14V98.4h-1.1V91.14H73.57v-1h3.22v1Z"/><path class="cls-1" d="M77.42,98.4V90.14h2.74v1H78.53v2.51H80v1H78.53V97.4h1.63v1Z"/><path class="cls-1" d="M60.09,120.18A60.11,60.11,0,0,1,36.7,4.72,60.11,60.11,0,0,1,83.48,115.46,59.79,59.79,0,0,1,60.09,120.18Zm0-117.44A57.36,57.36,0,0,0,37.77,112.93,57.36,57.36,0,0,0,82.41,7.25,57,57,0,0,0,60.09,2.74Z"/><polygon class="cls-1" points="14.33 52.48 15.45 55.91 19.06 55.91 16.14 58.04 17.25 61.47 14.33 59.35 11.41 61.47 12.52 58.04 9.6 55.91 13.21 55.91 14.33 52.48"/><polygon class="cls-1" points="103.49 52.48 104.6 55.91 108.21 55.91 105.29 58.04 106.41 61.47 103.49 59.35 100.56 61.47 101.68 58.04 98.76 55.91 102.37 55.91 103.49 52.48"/><rect class="cls-1" x="80.63" y="23.44" width="10.25" height="1.14"/><rect class="cls-1" x="28.47" y="23.44" width="10.25" height="1.14"/><path class="cls-1" d="M90.88,59.64V37.77a.86.86,0,0,0-.86-.86H87.2a.85.85,0,0,0-.86.86V57.84A13.25,13.25,0,0,1,90.88,59.64Z"/><path class="cls-1" d="M86.34,71.11v8a.85.85,0,0,0,.86.86H90a.86.86,0,0,0,.86-.86V69.36A13.4,13.4,0,0,1,86.34,71.11Z"/><path class="cls-1" d="M68.31,62.84a9.21,9.21,0,0,0,2.76-.3V41.36a.87.87,0,0,1,.87-.86H73.4a2.21,2.21,0,0,1,2.22,2.22V60a13.43,13.43,0,0,1,4.54-2V43.06A6.15,6.15,0,0,0,74,36.91H67.39a.86.86,0,0,0-.86.86v25Z"/><path class="cls-1" d="M75.62,68.79v5.36a2.21,2.21,0,0,1-2.22,2.22H71.94a.87.87,0,0,1-.87-.86V66.19a14.25,14.25,0,0,0-4.54-.47V79.1a.86.86,0,0,0,.86.86H74a6.15,6.15,0,0,0,6.15-6.15V71A11.49,11.49,0,0,1,75.62,68.79Z"/><path class="cls-1" d="M48,62.11v0l2.39.08V51.05a.05.05,0,0,1,.1,0L52.57,62.3l3,.1L50.94,37.61a.87.87,0,0,0-.85-.7H47.28a.86.86,0,0,0-.86.86V62.06Z"/><path class="cls-1" d="M60.42,62.57V37.77a.86.86,0,0,0-.86-.86H57.34a.86.86,0,0,0-.86.86V62.43Z"/><path class="cls-1" d="M46.42,66.46V79.1a.86.86,0,0,0,.86.86H49.5a.86.86,0,0,0,.86-.86V66.32Z"/><path class="cls-1" d="M56.29,66.12l-3,.1,2.45,13a.86.86,0,0,0,.84.7h3a.87.87,0,0,0,.86-.86V66l-3.94.15"/><path class="cls-1" d="M26.31,67l-1,12a.86.86,0,0,0,.86.93h2.42a.86.86,0,0,0,.86-.79l1.07-12.23"/><path class="cls-1" d="M31,61.7l1.43-17s.05-.52.33-.52.33.52.33.52l1.39,16.95c0,.25.12-.13,0,0l4.29.13-2-22.9a2.22,2.22,0,0,0-2.2-2H31a2.22,2.22,0,0,0-2.21,2l-2,22.6h.28"/><path class="cls-1" d="M35,66.81l1.08,12.36A.86.86,0,0,0,37,80h2.41a.85.85,0,0,0,.86-.93L39.14,66.68Z"/><path class="cls-1" d="M48.19,26.75V20h2.23v.82H49.09v2h1.18v.82H49.09v2.24h1.33v.81Z"/><path class="cls-1" d="M52.79,21.83v-.59a.35.35,0,0,0-.39-.4h-.14a.35.35,0,0,0-.39.4v1.12a.32.32,0,0,0,.08.25,1.54,1.54,0,0,0,.24.17l.85.46.4.25a.6.6,0,0,1,.18.21,1.12,1.12,0,0,1,.07.49v1.43c0,.76-.36,1.13-1.09,1.13h-.55Q51,26.75,51,25.52v-.34h.9v.36a.35.35,0,0,0,.4.4h.16c.24,0,.36-.13.36-.4V24.4a.37.37,0,0,0-.07-.25L52.47,24l-.85-.48a2.36,2.36,0,0,1-.41-.25A.56.56,0,0,1,51,23a1.27,1.27,0,0,1-.06-.43V21.18c0-.77.36-1.16,1.08-1.16h.56c.72,0,1.08.39,1.08,1.16v.65Z"/><path class="cls-1" d="M55.87,20.84v5.91H55V20.84h-.86V20h2.63v.82Z"/><path class="cls-1" d="M57.41,25.61v1.14h-1V25.61Z"/><path class="cls-1" d="M59.54,21.51l-.21-.61a1.69,1.69,0,0,0,.59-.37,2.1,2.1,0,0,0,.39-.51h.09l.59.32v6.41H60.1v-5.4Z"/><path class="cls-1" d="M62.84,25.18v.27c0,.33.13.49.4.49h.13c.24,0,.36-.13.36-.4V23.91l-.56.38H63q-1.08,0-1.08-1.2V21.2c0-.78.36-1.18,1.08-1.18h.59c.72,0,1.08.4,1.08,1.18v4.35q0,1.2-1.08,1.2H63q-1.08,0-1.08-1.2v-.37Zm.89-1.71V21.24c0-.27-.15-.4-.44-.4h-.11a.35.35,0,0,0-.4.4V23c0,.32.14.48.4.48Z"/><path class="cls-1" d="M65.66,26.75l1.16-5.89H65.14V20H67.5l.25.49-1.2,6.24Z"/><path class="cls-1" d="M69.39,26.75c-.72,0-1.08-.38-1.08-1.15V21.18c0-.77.36-1.16,1.08-1.16H70c.72,0,1.08.39,1.08,1.16V25.6c0,.77-.36,1.15-1.08,1.15Zm.18-5.91q-.36,0-.36.39v4.31a.35.35,0,0,0,.4.4h.23c.24,0,.35-.13.35-.4V21.23a.35.35,0,0,0-.4-.39Z"/></g></g></svg>